<?xml version="1.0" encoding="UTF-8"?>
<svg version="1.1" xmlns="http://www.w3.org/2000/svg" width="316" height="267">
<path d="M0,0 L1,2 L3,2 L4,0 L4,2 L6,2 L6,7 L8,9 L8,11 L10,8 L12,9 L11,13 L19,10 L28,11 L33,14 L33,20 L32,22 L30,22 L30,24 L23,29 L16,39 L14,44 L14,54 L19,55 L19,57 L15,57 L19,65 L25,73 L34,81 L38,88 L44,103 L53,114 L52,127 L56,129 L57,132 L64,132 L63,129 L60,128 L60,126 L67,126 L69,128 L69,131 L73,133 L80,140 L77,162 L74,186 L71,192 L69,194 L59,196 L43,196 L43,199 L60,200 L60,203 L73,199 L78,198 L78,194 L86,195 L86,202 L77,203 L77,208 L146,208 L146,219 L-170,219 L-170,90 L-161,90 L-159,85 L-157,83 L-157,196 L-2,196 L-2,181 L-142,181 L-142,76 L-118,76 L-117,161 L-113,168 L-113,170 L-58,169 L-68,161 L-100,160 L-100,76 L-75,76 L-74,138 L-73,144 L-69,146 L-64,150 L2,151 L2,137 L-59,137 L-61,136 L-61,76 L-19,76 L-23,80 L-40,91 L-39,95 L-37,99 L-33,97 L-17,87 L3,74 L8,71 L-3,63 L-19,53 L-34,43 L-38,44 L-40,47 L-39,51 L-26,59 L-18,64 L-18,65 L-61,65 L-61,18 L2,18 L2,4 L-50,4 L-49,2 L-2,1 Z " fill="#FAFCFA" transform="translate(170,48)"/>
<path d="M0,0 L316,0 L316,256 L247,256 L246,251 L247,250 L256,250 L255,243 L255,232 L254,232 L254,225 L255,221 L256,214 L254,214 L254,209 L256,208 L272,208 L272,215 L276,216 L276,213 L281,213 L280,215 L284,216 L284,214 L288,215 L294,218 L294,220 L300,220 L302,221 L303,214 L308,193 L309,187 L309,172 L306,148 L302,138 L300,132 L297,131 L293,122 L293,120 L291,120 L290,117 L287,114 L282,107 L280,106 L279,101 L275,99 L270,94 L270,92 L265,90 L256,84 L248,80 L243,79 L224,79 L210,86 L208,86 L209,81 L219,68 L221,64 L221,48 L218,41 L214,38 L202,38 L195,43 L192,48 L192,52 L187,53 L187,55 L182,59 L180,58 L176,61 L175,55 L176,50 L171,50 L168,50 L112,51 L104,50 L104,48 L116,48 L117,34 L116,31 L111,32 L111,33 L62,33 L60,32 L59,36 L53,41 L52,113 L27,113 L27,25 L168,25 L168,11 L13,11 L13,106 L10,102 L9,100 L0,99 Z " fill="#FBFDFC" transform="translate(0,0)"/>
<path d="M0,0 L53,0 L53,12 L10,12 L10,79 L90,78 L79,71 L69,64 L70,59 L73,56 L77,57 L93,67 L108,77 L119,84 L115,88 L97,99 L79,111 L75,114 L72,113 L69,108 L70,104 L90,91 L49,90 L49,150 L112,151 L112,165 L46,165 L37,158 L35,152 L35,90 L10,90 L10,174 L42,174 L53,183 L53,184 L-3,184 L-7,176 L-8,175 L-8,7 Z " fill="#2C6F34" transform="translate(60,34)"/>
<path d="M0,0 L5,2 L14,8 L19,11 L26,19 L29,22 L29,25 L33,27 L37,33 L37,35 L40,36 L40,39 L42,39 L46,47 L47,50 L50,53 L53,58 L56,67 L59,91 L59,106 L54,129 L51,140 L43,139 L43,137 L38,136 L32,132 L32,130 L27,128 L18,123 L22,119 L23,115 L20,116 L18,114 L12,114 L14,108 L14,106 L10,106 L9,102 L7,98 L7,93 L4,94 L5,88 L1,84 L0,78 L-4,77 L-4,75 L-7,75 L-9,68 L-9,57 L-5,58 L-6,53 L-11,52 L-11,49 L-13,49 L-13,41 L-16,41 L-15,30 L-13,30 L-12,23 L-9,20 L-7,20 L-7,16 L-4,15 L-1,9 L-1,2 Z " fill="#9B98A9" transform="translate(251,81)"/>
<path d="M0,0 L12,0 L17,4 L20,11 L20,27 L15,35 L7,45 L6,49 L22,41 L41,41 L47,43 L50,46 L48,46 L49,53 L45,60 L42,60 L42,64 L37,69 L36,74 L34,74 L34,83 L33,85 L36,85 L36,93 L38,93 L38,96 L43,96 L44,97 L44,102 L40,101 L41,112 L42,119 L45,119 L46,121 L49,122 L49,124 L51,125 L51,130 L55,132 L54,137 L57,136 L57,142 L60,148 L59,150 L63,150 L64,153 L63,157 L68,157 L69,159 L74,157 L72,163 L69,166 L65,165 L54,157 L54,155 L52,155 L52,153 L47,151 L39,143 L37,142 L35,138 L28,137 L28,139 L32,140 L32,143 L25,143 L20,138 L20,125 L10,112 L4,96 L0,91 L-8,84 L-11,81 L-15,74 L-17,71 L-17,68 L-13,68 L-14,66 L-19,65 L-19,55 L-14,45 L-9,39 L-4,35 L-2,35 L-2,33 L0,33 L1,25 L-8,22 L-16,23 L-21,24 L-19,20 L-15,18 L-15,16 L-10,15 L-11,11 L-5,3 Z " fill="#31303A" transform="translate(202,37)"/>
<path d="M0,0 L155,0 L155,14 L14,14 L14,102 L3,102 L-1,95 Z " fill="#2C6F34" transform="translate(13,11)"/>
<path d="M0,0 L11,0 L11,106 L14,107 L149,107 L150,108 L150,118 L0,118 L-1,116 L-2,17 L-3,4 L-2,1 Z " fill="#2C6F34" transform="translate(16,124)"/>
<path d="M0,0 L7,0 L7,2 L11,3 L8,3 L8,13 L7,17 L-5,17 L-5,19 L11,20 L11,21 L-7,22 L-13,31 L-14,82 L-39,82 L-39,15 L4,15 L4,3 L-49,3 L-49,1 L0,1 Z M11,19 Z " fill="#FAFCFA" transform="translate(109,31)"/>
<path d="M0,0 L70,0 L70,14 L7,14 L7,61 L-7,61 L-7,10 Z " fill="#0F8F45" transform="translate(102,52)"/>
<path d="M0,0 L9,0 L16,13 L52,14 L52,25 L14,26 L13,31 L9,39 L0,39 Z " fill="#171715" transform="translate(0,99)"/>
<path d="M0,0 L1,0 L2,12 L3,113 L153,113 L152,103 L16,103 L16,100 L155,100 L155,115 L0,115 L-1,1 Z " fill="#4DA274" transform="translate(13,129)"/>
<path d="M0,0 L5,0 L4,3 L6,4 L4,4 L3,15 L1,25 L0,35 L0,49 L4,53 L4,55 L-2,53 L-2,57 L-15,62 L-20,62 L-20,59 L-33,59 L-37,58 L-37,55 L-21,54 L-11,52 L-8,48 L-6,37 L-2,6 Z " fill="#8A8E89" transform="translate(250,189)"/>
<path d="M0,0 L5,2 L18,12 L26,16 L30,20 L30,23 L25,23 L26,21 L22,20 L22,23 L18,22 L17,16 L2,15 L1,19 L0,21 L2,21 L2,32 L0,32 L2,34 L2,47 L0,50 L-5,45 L-5,31 L-3,18 Z " fill="#FAFCFA" transform="translate(254,193)"/>
<path d="M0,0 L1,0 L2,106 L0,106 Z " fill="#4DA274" transform="translate(27,124)"/>
</svg>
